<svg width="33" height="16" xmlns="http://www.w3.org/2000/svg"><path d="m21.312 5.101 10.434-.72c.689-.048 1.123.708.72 1.254l-7.3 9.9a.822.822 0 0 1-.661.33H8.135a.822.822 0 0 1-.66-.33L.154 5.637c-.403-.546.03-1.303.72-1.255l10.402.72L15.721.264A.83.83 0 0 1 16.94.27l4.372 4.832zm2.185 9.195-6.772-2.464v2.464h6.772zm-7.587 0v-2.464l-6.772 2.464h6.772zm-.782-3.053L8.21 13.758l-5.09-6.89 12.008 4.375zm2.364 0 6.92 2.515 5.09-6.89-12.01 4.375zm-1.576-.575V2.377L10.26 8.595l5.657 2.073zm.809 0v-8.29l5.657 6.217-5.657 2.073zM8.6 8.021l1.302-1.424-6.36-.443L8.6 8.02zm15.373 0-1.301-1.424 6.359-.443-5.058 1.867z" fill="#006CFF" fill-rule="evenodd"/></svg>